<svg width="334" height="364" viewBox="0 0 334 364" fill="none" xmlns="http://www.w3.org/2000/svg">
<rect x="18" y="40" width="299" height="299" rx="149.5" fill="white"/>
<rect x="18" y="40" width="299" height="299" rx="149.5" fill="#D3E3F2"/>
<path d="M241.664 280.702L245.979 282.07L181.531 27.8881L178.318 28.3955L241.664 280.702Z" fill="#7FCAD1"/>
<path d="M250.293 283.439L184.744 27.3808L181.531 27.8881L245.979 282.07L250.293 283.439Z" fill="#D9D9D9"/>
<path d="M250.293 283.439L184.744 27.3808L181.531 27.8881L245.979 282.07L250.293 283.439Z" fill="#F1ECE9"/>
<path d="M174.279 29.0333L236.523 279.072L241.664 280.702L178.318 28.3955L174.279 29.0333Z" fill="#D9D9D9"/>
<path d="M174.279 29.0333L236.523 279.072L241.664 280.702L178.318 28.3955L174.279 29.0333Z" fill="#F1ECE9"/>
<path d="M236.523 279.072L174.279 29.0333L156.652 35.4597L115.707 240.757L134.435 246.697L155.447 108.039C156.182 103.195 159.669 99.2209 164.377 97.8636C171.265 95.8779 178.414 100.057 180.063 107.033L181.745 114.151C184.871 115.817 187.328 118.737 188.29 122.466L227.985 276.364L236.523 279.072Z" fill="#D9D9D9"/>
<path d="M236.523 279.072L174.279 29.0333L156.652 35.4597L115.707 240.757L134.435 246.697L155.447 108.039C156.182 103.195 159.669 99.2209 164.377 97.8636C171.265 95.8779 178.414 100.057 180.063 107.033L181.745 114.151C184.871 115.817 187.328 118.737 188.29 122.466L227.985 276.364L236.523 279.072Z" fill="#F9F7F5"/>
<path d="M155.447 108.039L134.435 246.697L142.881 249.375L162.585 123.712C163.34 118.896 166.7 114.893 171.313 113.315C174.913 112.084 178.656 112.505 181.745 114.151L180.063 107.033C178.414 100.057 171.265 95.8779 164.377 97.8636C159.669 99.2209 156.182 103.195 155.447 108.039Z" fill="#D9D9D9"/>
<path d="M155.447 108.039L134.435 246.697L142.881 249.375L162.585 123.712C163.34 118.896 166.7 114.893 171.313 113.315C174.913 112.084 178.656 112.505 181.745 114.151L180.063 107.033C178.414 100.057 171.265 95.8779 164.377 97.8636C159.669 99.2209 156.182 103.195 155.447 108.039Z" fill="#92807D"/>
<path d="M181.745 114.151L219.447 273.656L227.985 276.364L188.29 122.466C187.328 118.737 184.871 115.817 181.745 114.151Z" fill="#D9D9D9"/>
<path d="M181.745 114.151L219.447 273.656L227.985 276.364L188.29 122.466C187.328 118.737 184.871 115.817 181.745 114.151Z" fill="#F9F7F5"/>
<mask id="mask0_18_787" style="mask-type:alpha" maskUnits="userSpaceOnUse" x="18" y="40" width="299" height="299">
<rect x="18" y="40" width="299" height="299" rx="149.5" fill="#D3E3F2"/>
</mask>
<g mask="url(#mask0_18_787)">
<path d="M158.304 45.0074L-87 29.9513M139.392 162.151L89.7253 223.513M157.434 50.3947L-87 41.5188M156.614 55.4732H-87M155.577 61.8996L-87 69.4276M-87 90.1757L153.932 72.09M153.502 74.7524L-87 97.5201M152.642 80.0771L-87 117.717M151.308 88.3395L-87 153.338M150.063 96.0512L-67.7209 170.317M148.967 102.845L-48.0398 176.967M147.751 110.373L-26.2248 184.337M146.372 118.913L-6.85391 190.882M144.253 132.039L26.655 202.204M141.823 147.095L57.318 212.564M178.346 45.3746L389.837 324.91M180.312 53.2699L380.106 321.622M183.054 64.2865L361.928 315.481M186.322 77.4147L346.872 310.394M189.672 90.8701L336.957 307.044M192.653 102.845L334.111 306.082M195.508 114.314L325.941 303.322M197.893 125.613L321.626 301.864M199.92 132.039L311.527 298.452M200.926 136.078L298.032 293.892M203.12 144.892L286.831 290.108M205.679 155.174L275.309 286.215M207.965 164.354L271.2 284.827" stroke="#CDC1BC"/>
<path d="M-87 248.265L448.042 347.782H451.53L-87 190.06V248.265Z" fill="#594541"/>
<path d="M453.183 347.782L-87 176.473V190.06L451.53 347.782H453.183Z" fill="#CDC1BC"/>
<path d="M236.522 279.072L227.985 276.364L219.447 273.656L122.317 287.197L108.179 284.567L105.057 298.39L129.294 372.936L147.196 372.16L127.641 316.935L132.232 305L204.941 296.921L208.155 300.341L211.368 303.76L189.036 371.612L205.443 371.447L236.522 279.072Z" fill="#E1D6D2"/>
<path d="M241.664 280.702L236.522 279.072L205.443 371.447L216.692 371.333L241.664 280.702Z" fill="#F1ECE9"/>
<path d="M241.664 280.702L216.692 371.333L220.916 371.291L245.978 282.07L241.664 280.702Z" fill="#D9D9D9"/>
<path d="M241.664 280.702L216.692 371.333L220.916 371.291L245.978 282.07L241.664 280.702Z" fill="#3EA4B3"/>
<path d="M224.169 371.258L250.293 283.439L245.978 282.07L220.916 371.291L224.169 371.258Z" fill="#CDC1BC"/>
<path d="M132.232 305L127.641 316.935L147.196 372.16L149.124 371.848H165.595L144.35 316.935L147.471 307.387L208.155 300.341L204.941 296.921L132.232 305Z" fill="#B5A5A1"/>
<path d="M147.471 372.936H166.016L165.595 371.848H149.124L147.196 372.16L147.471 372.936Z" fill="#D9D9D9"/>
<path d="M147.471 372.936H166.016L165.595 371.848H149.124L147.196 372.16L147.471 372.936Z" fill="#B5A5A1"/>
<path d="M188.6 372.936H204.941L205.443 371.447L189.036 371.612L188.6 372.936Z" fill="#D9D9D9"/>
<path d="M188.6 372.936H204.941L205.443 371.447L189.036 371.612L188.6 372.936Z" fill="#E1D6D2"/>
<path d="M204.941 372.936H188.6L189.036 371.612C179.882 371.704 174.749 371.756 165.595 371.848L166.016 372.936H147.471H129.294L110.382 375.507H202.554L223.67 372.936H220.548H216.325H204.941Z" fill="#D9D9D9"/>
<path d="M204.941 372.936H188.6L189.036 371.612C179.882 371.704 174.749 371.756 165.595 371.848L166.016 372.936H147.471H129.294L110.382 375.507H202.554L223.67 372.936H220.548H216.325H204.941Z" fill="#92807D"/>
<path d="M202.554 385.973V375.507H110.382V386.707L202.554 385.973Z" fill="#D9D9D9"/>
<path d="M202.554 385.973V375.507H110.382V386.707L202.554 385.973Z" fill="#F1ECE9"/>
<path d="M239.827 371.1L223.67 372.936L202.554 375.507V385.973L239.827 383.953V371.1Z" fill="#D9D9D9"/>
<path d="M239.827 371.1L223.67 372.936L202.554 375.507V385.973L239.827 383.953V371.1Z" fill="#F9F7F5"/>
<path d="M223.67 372.936L239.827 371.1L224.169 371.258L223.67 372.936Z" fill="#D9D9D9"/>
<path d="M241.664 280.702L236.522 279.072L205.443 371.447L216.692 371.333L241.664 280.702Z" fill="#F1ECE9"/>
<path d="M241.664 280.702L236.522 279.072L205.443 371.447L216.692 371.333L241.664 280.702Z" fill="#F1ECE9"/>
<path d="M241.664 280.702L236.522 279.072L205.443 371.447L216.692 371.333L241.664 280.702Z" fill="#CDC1BC"/>
<path d="M147.196 372.16L129.294 372.936H147.471L147.196 372.16Z" fill="#E1D6D2"/>
<path d="M241.664 280.702L245.978 282.07L181.531 27.8881L178.318 28.3955L241.664 280.702Z" fill="#7FCAD1"/>
<path d="M250.293 283.439L184.744 27.3808L181.531 27.8881L245.978 282.07L250.293 283.439Z" fill="#D9D9D9"/>
<path d="M250.293 283.439L184.744 27.3808L181.531 27.8881L245.978 282.07L250.293 283.439Z" fill="#F1ECE9"/>
<path d="M174.278 29.0333L236.522 279.072L241.664 280.702L178.318 28.3955L174.278 29.0333Z" fill="#D9D9D9"/>
<path d="M174.278 29.0333L236.522 279.072L241.664 280.702L178.318 28.3955L174.278 29.0333Z" fill="#F1ECE9"/>
<path d="M236.522 279.072L174.278 29.0333L156.652 35.4597L115.707 240.757L134.435 246.697L155.447 108.039C156.181 103.195 159.669 99.2209 164.377 97.8636C171.265 95.8779 178.413 100.057 180.062 107.033L181.745 114.151C184.871 115.817 187.328 118.737 188.29 122.466L227.985 276.364L236.522 279.072Z" fill="#D9D9D9"/>
<path d="M236.522 279.072L174.278 29.0333L156.652 35.4597L115.707 240.757L134.435 246.697L155.447 108.039C156.181 103.195 159.669 99.2209 164.377 97.8636C171.265 95.8779 178.413 100.057 180.062 107.033L181.745 114.151C184.871 115.817 187.328 118.737 188.29 122.466L227.985 276.364L236.522 279.072Z" fill="#F9F7F5"/>
<path d="M155.447 108.039L134.435 246.697L142.881 249.375L162.585 123.712C163.34 118.896 166.7 114.893 171.313 113.315C174.913 112.084 178.656 112.505 181.745 114.151L180.062 107.033C178.413 100.057 171.265 95.8779 164.377 97.8636C159.669 99.2209 156.181 103.195 155.447 108.039Z" fill="#D9D9D9"/>
<path d="M155.447 108.039L134.435 246.697L142.881 249.375L162.585 123.712C163.34 118.896 166.7 114.893 171.313 113.315C174.913 112.084 178.656 112.505 181.745 114.151L180.062 107.033C178.413 100.057 171.265 95.8779 164.377 97.8636C159.669 99.2209 156.181 103.195 155.447 108.039Z" fill="#92807D"/>
<path d="M181.745 114.151L219.447 273.656L227.985 276.364L188.29 122.466C187.328 118.737 184.871 115.817 181.745 114.151Z" fill="#D9D9D9"/>
<path d="M181.745 114.151L219.447 273.656L227.985 276.364L188.29 122.466C187.328 118.737 184.871 115.817 181.745 114.151Z" fill="#F9F7F5"/>
<path fill-rule="evenodd" clip-rule="evenodd" d="M216.325 372.936H204.941L205.443 371.447L216.692 371.333L216.325 372.936ZM220.548 372.936H223.67L224.169 371.258L220.916 371.291L220.548 372.936Z" fill="#D9D9D9"/>
<path fill-rule="evenodd" clip-rule="evenodd" d="M216.325 372.936H204.941L205.443 371.447L216.692 371.333L216.325 372.936ZM220.548 372.936H223.67L224.169 371.258L220.916 371.291L220.548 372.936Z" fill="#F1ECE9"/>
<path fill-rule="evenodd" clip-rule="evenodd" d="M216.325 372.936H204.941L205.443 371.447L216.692 371.333L216.325 372.936ZM220.548 372.936H223.67L224.169 371.258L220.916 371.291L220.548 372.936Z" fill="#CDC1BC"/>
<path d="M220.916 371.291L216.692 371.333L216.325 372.936H220.548L220.916 371.291Z" fill="#D9D9D9"/>
<path d="M220.916 371.291L216.692 371.333L216.325 372.936H220.548L220.916 371.291Z" fill="#3EA4B3"/>
<path d="M-87 176.473L453.183 347.782V346.313L-87 163.804V176.473Z" fill="#F9F7F5"/>
<path d="M-87 163.804L180.525 81.546M-73.2292 168.456L181.072 83.7076M182.243 88.3396L-57.9895 173.605M-38.0901 180.329L183.311 92.5626M-18.8804 186.819L184.564 97.5201M5.17259 194.946L185.911 102.845M42.4456 207.539L187.443 108.904M75.4955 218.705L188.65 113.678M103.955 228.321L189.672 117.717M128.559 236.634L190.647 121.573M150.776 244.14L191.668 125.613M170.789 250.902L193.293 132.039M189.672 257.281L194.779 137.914M170.789 43.7221L-87 7M173.249 53.2699L-87 34.9088M174.573 58.411L-87 45.3746M176.086 64.2866L-87 58.9618M177.411 69.4277L-87 78.4246M178.782 74.7524L-87 99.5398M179.468 77.4147L-87 125.613M-87 146.177L179.811 78.7459M189.672 46.6303L374.597 319.761M191.371 53.2699L367.253 317.28M193.293 60.777L356.604 313.682M195.508 69.4277L342.649 308.967M197.893 78.7459L331.265 305.121M201.007 90.9101L317.311 300.406M204.062 102.845L294.176 292.59M206.835 113.678L283.526 288.992M209.185 122.858L267.091 283.439M212.57 136.078L256.456 279.846M305.743 296.498L202.535 96.8775" stroke="#6E5854"/>
</g>
</svg>
