<svg width="334" height="364" viewBox="0 0 334 364" fill="none" xmlns="http://www.w3.org/2000/svg">
<rect x="18" y="40" width="299" height="299" rx="149.5" fill="white"/>
<mask id="mask0_18_421" style="mask-type:alpha" maskUnits="userSpaceOnUse" x="18" y="40" width="299" height="299">
<rect x="18" y="40" width="299" height="299" rx="149.5" fill="white"/>
</mask>
<g mask="url(#mask0_18_421)">
<path d="M242.687 256.891L234.973 257.447C237.236 241.776 240.738 207.017 240.926 198.862C241.113 190.707 241.112 152.163 241.088 133.91L248.802 133.354C248.938 148.69 249.194 183.145 249.122 198.271C249.049 213.397 244.802 243.653 242.687 256.891Z" fill="#5C451D"/>
<path d="M225.303 116.632C217.367 114.103 205.538 120.319 200.615 123.744L217.007 122.561C222.021 122.2 224.289 127.206 224.796 129.754C221.903 129.963 214.74 131.448 209.233 135.723C203.726 139.997 201.414 150.502 200.947 155.221C201.979 153.854 205.207 149.776 209.859 144.401C214.511 139.025 224.078 137.721 228.279 137.741C226.709 140.601 223.266 148.862 222.06 159.029C220.855 169.196 232.93 173.107 239.118 173.792C237.922 170.647 235.226 162.829 234.009 156.713C232.793 150.598 237.79 146.425 240.441 145.103C243.38 145.537 249.914 147.425 252.534 151.5C255.154 155.576 254.553 166.055 253.925 170.785C258.754 166.075 268.192 154.927 267.306 148.012C266.419 141.097 257.195 135.494 252.694 133.557C256.034 132.832 264.181 131.566 270.05 132.306C275.919 133.046 290.866 136.459 297.605 138.073C295.273 134.848 289.305 127.815 284.097 125.477C278.888 123.139 266.084 124.353 260.334 125.252C261.883 124.333 266.696 122.08 273.555 120.422C280.414 118.764 294.207 120.063 300.245 120.92C293.723 117.837 279.128 111.684 272.929 111.744C266.73 111.803 256.207 117.311 251.72 120.058C252.085 116.155 251.986 106.275 248.674 97.9847C245.363 89.694 231.635 92.4287 225.185 94.8324C226.999 95.3478 231.978 97.638 237.382 102.676C242.785 107.714 240.607 118.275 238.842 122.925C237.636 121.882 233.24 119.162 225.303 116.632Z" fill="#8EB33E"/>
<path d="M284.46 103.643C269.032 104.755 259.258 114.83 252.684 119.988C259.318 117.895 275.093 113.526 285.121 112.803C295.149 112.08 311.092 119.007 317.81 122.561C310.711 115.965 299.888 102.53 284.46 103.643Z" fill="#8EB33E"/>
<path d="M294.43 127.64C283.821 125.691 268.199 129.047 261.715 130.968C269.338 131.388 286.636 132.467 294.847 133.425C303.058 134.384 315.561 140.655 320.786 143.67C316.421 139.139 305.038 129.589 294.43 127.64Z" fill="#8EB33E"/>
<path d="M313.752 180.525C310.163 171.091 298.022 153.26 286.968 145.14C276.404 137.38 269.707 134.269 253.553 132.042C261.466 136.479 275.879 145.94 284.115 152.615C292.35 159.291 306.306 171.369 313.752 180.525Z" fill="#8EB33E"/>
<path d="M210.285 163.755C207.728 171.306 209.58 189.815 210.826 198.125C211.498 191.776 213.194 177.212 214.594 169.745C215.994 162.277 220.401 149.456 222.429 143.979C219.446 147.425 212.842 156.204 210.285 163.755Z" fill="#8EB33E"/>
<path d="M220.618 165.918C219.99 173.33 223.059 193.043 224.672 201.973C223.977 192.33 224.3 176.032 225.613 167.981C227.294 157.682 228.777 144.652 229.76 138.119C226.975 144.297 221.247 158.506 220.618 165.918Z" fill="#8EB33E"/>
<path d="M203.939 149.674C194.612 159.908 189.149 177.557 186.779 187.259C191.011 180.976 200.519 165.429 208.695 155.147C216.871 144.864 231.044 135.765 236.609 132.294C231.203 133.492 212.921 139.818 203.939 149.674Z" fill="#8EB33E"/>
<path d="M201.519 136.279C188.962 144.939 184.384 158.515 182.735 164.773C187.104 158.158 197.751 147.513 204.829 141.856C212.16 135.996 226.436 127.859 232.231 125.341C227.846 125.011 214.076 127.619 201.519 136.279Z" fill="#8EB33E"/>
<path d="M209.97 105.622C203.743 105.296 193.693 108.412 189.447 110.01C192.245 106.254 200.171 98.7688 209.483 98.8726C218.795 98.9764 229.052 110.385 233.017 116.076C227.929 112.727 216.197 105.949 209.97 105.622Z" fill="#8EB33E"/>
<path d="M220.915 96.1096C212.191 89.9218 195.413 87.4485 187.366 87.8672C194.347 90.5946 210.859 96.4471 217.475 102.173C224.092 107.899 233.26 119.451 236.362 122.135C235.084 117.865 229.598 102.268 220.915 96.1096Z" fill="#8EB33E"/>
<path d="M241.595 120.788C243.186 113.727 245.821 96.0581 243.635 81.8707C240.982 64.6531 229.908 58.3376 215.693 64.016C220.517 68.1913 231.297 78.7865 235.821 87.7651C240.346 96.7437 241.556 113.522 241.595 120.788Z" fill="#8EB33E"/>
<path d="M259.323 158.28C258.596 142.824 252.993 135.474 250.283 133.731L254.622 133.418C258.529 138.306 266.963 149.975 269.447 157.55C271.932 165.125 262.625 186.151 257.661 195.717C258.518 189.678 260.05 173.736 259.323 158.28Z" fill="#8EB33E"/>
<path d="M267.477 96.6286C262.745 106.275 251.465 116.522 246.417 120.44C246.975 114.746 249.724 101.786 256.249 95.4999C262.774 89.2137 270.599 79.4414 273.696 75.341C273.595 78.4177 272.209 86.9825 267.477 96.6286Z" fill="#8EB33E"/>
<path d="M299.225 140.379C287.539 134.243 267.467 132.331 258.892 132.141C268.295 134.855 289.211 141.295 297.645 145.339C306.078 149.383 320.774 159.179 327.068 163.572C322.656 158.397 310.911 146.515 299.225 140.379Z" fill="#8EB33E"/>
<path d="M152.073 121.502V244H159.988V91.2381H156.39H150.634V114.296H143.439V121.502H152.073Z" fill="#6E5D5B"/>
<path d="M176.536 159.792V155.99C176.536 153.82 177.683 151.811 179.551 150.711C181.465 149.583 183.839 149.583 185.753 150.711C187.621 151.811 188.768 153.82 188.768 155.99V159.792C188.768 161.963 187.621 163.971 185.753 165.072C183.839 166.199 181.465 166.199 179.551 165.072C177.683 163.971 176.536 161.963 176.536 159.792Z" fill="#E6E0DC"/>
<path d="M176.536 133.852V130.049C176.536 127.879 177.683 125.871 179.551 124.77C181.465 123.643 183.839 123.643 185.753 124.77C187.621 125.871 188.768 127.879 188.768 130.049V133.852C188.768 136.022 187.621 138.031 185.753 139.131C183.839 140.259 181.465 140.259 179.551 139.131C177.683 138.031 176.536 136.022 176.536 133.852Z" fill="#E6E0DC"/>
<path d="M185.756 98.8314C183.84 97.7029 181.463 97.7029 179.548 98.8314C177.682 99.9307 176.536 101.935 176.536 104.101V107.919C176.536 110.085 177.682 112.089 179.548 113.188C181.463 114.317 183.84 114.317 185.756 113.188C187.622 112.089 188.768 110.085 188.768 107.919V104.101C188.768 101.935 187.622 99.9307 185.756 98.8314Z" fill="#E6E0DC"/>
<path d="M179.939 218.78C176.073 218.78 172.939 221.914 172.939 225.78V244H193.085V225.78C193.085 221.914 189.951 218.78 186.085 218.78H179.939Z" fill="#594541"/>
<path d="M167.362 84.7529H182.652H197.941L197.119 72.2801C196.847 68.1592 194.476 64.4677 190.841 62.5075L188.348 61.1631C184.792 59.2459 180.511 59.2459 176.956 61.1631L174.463 62.5075C170.828 64.4677 168.457 68.1592 168.185 72.2801L167.362 84.7529Z" fill="#E9E1DE"/>
<path d="M152.073 64.5768V84.7529H154.232V63.1356L148.476 61.6945L150.215 27.8274L144.878 64.5768H152.073Z" fill="#4A3C3B"/>
<path d="M214.67 91.2381H223.304V84.7529H213.231H210.353V91.2381H214.67Z" fill="#CDC1BC"/>
<path fill-rule="evenodd" clip-rule="evenodd" d="M167.362 84.7529H156.39V91.2381H159.988H207.475H210.353V84.7529H197.941H182.652H167.362Z" fill="#453330"/>
<path d="M142 91.2381H150.634H156.39V84.7529H154.232H152.073H142V91.2381Z" fill="#302221"/>
<path d="M154.232 24.9451H150.634L150.215 27.8274L148.476 61.6945L154.232 63.1356V84.7529H156.39H167.362L168.185 72.2801C168.457 68.1592 170.828 64.4677 174.463 62.5075L176.956 61.1631C180.511 59.2459 184.792 59.2459 188.348 61.1631L190.841 62.5075C194.476 64.4677 196.847 68.1592 197.119 72.2801L197.941 84.7529H210.353H211.792V62.4151H216.109L203.562 26.3863L198.841 48.0036H188.768L183.012 22.0628H177.975L172.219 48.0036H159.268L154.232 24.9451Z" fill="#D9D9D9"/>
<path d="M154.232 24.9451H150.634L150.215 27.8274L148.476 61.6945L154.232 63.1356V84.7529H156.39H167.362L168.185 72.2801C168.457 68.1592 170.828 64.4677 174.463 62.5075L176.956 61.1631C180.511 59.2459 184.792 59.2459 188.348 61.1631L190.841 62.5075C194.476 64.4677 196.847 68.1592 197.119 72.2801L197.941 84.7529H210.353H211.792V62.4151H216.109L203.562 26.3863L198.841 48.0036H188.768L183.012 22.0628H177.975L172.219 48.0036H159.268L154.232 24.9451Z" fill="#92807D"/>
<path d="M207.475 24.9451H203.877L203.562 26.3863L216.109 62.4151H211.792V84.7529H213.231V64.5768H220.426L207.475 24.9451Z" fill="#D6C7C3"/>
<path d="M154.232 24.9451H150.634L150.215 27.8274L148.476 61.6945L154.232 63.1356V84.7529H156.39H167.362L168.089 73.7287C168.421 68.7068 171.308 64.2089 175.733 61.8228C180.052 59.4935 185.251 59.4935 189.571 61.8228C193.996 64.2089 196.883 68.7068 197.214 73.7287L197.941 84.7529H210.353H211.792V62.4151H216.109L203.562 26.3863L198.841 48.0036H188.768L183.012 22.0628H177.975L172.219 48.0036H159.268L154.232 24.9451Z" fill="#D9D9D9"/>
<path d="M154.232 24.9451H150.634L150.215 27.8274L148.476 61.6945L154.232 63.1356V84.7529H156.39H167.362L168.089 73.7287C168.421 68.7068 171.308 64.2089 175.733 61.8228C180.052 59.4935 185.251 59.4935 189.571 61.8228C193.996 64.2089 196.883 68.7068 197.214 73.7287L197.941 84.7529H210.353H211.792V62.4151H216.109L203.562 26.3863L198.841 48.0036H188.768L183.012 22.0628H177.975L172.219 48.0036H159.268L154.232 24.9451Z" fill="#92807D"/>
<path d="M154.232 24.9451H150.634L150.215 27.8274L148.476 61.6945L154.232 63.1356V84.7529H156.39H167.362L168.089 73.7287C168.421 68.7068 171.308 64.2089 175.733 61.8228C180.052 59.4935 185.251 59.4935 189.571 61.8228C193.996 64.2089 196.883 68.7068 197.214 73.7287L197.941 84.7529H210.353H211.792V62.4151H216.109L203.562 26.3863L198.841 48.0036H188.768L183.012 22.0628H177.975L172.219 48.0036H159.268L154.232 24.9451Z" fill="#6E5D5B"/>
<path fill-rule="evenodd" clip-rule="evenodd" d="M159.988 91.2381H207.475L206.036 244H193.085V225.78C193.085 221.914 189.951 218.78 186.085 218.78H179.939C176.073 218.78 172.939 221.914 172.939 225.78V244H159.988V91.2381ZM185.756 98.8314C183.84 97.7029 181.463 97.7029 179.548 98.8314C177.682 99.9307 176.536 101.935 176.536 104.101V107.919C176.536 110.085 177.682 112.089 179.548 113.188C181.463 114.317 183.84 114.317 185.756 113.188C187.622 112.089 188.768 110.085 188.768 107.919V104.101C188.768 101.935 187.622 99.9307 185.756 98.8314ZM176.536 133.852V130.049C176.536 127.879 177.683 125.871 179.551 124.77C181.465 123.643 183.839 123.643 185.753 124.77C187.621 125.871 188.768 127.879 188.768 130.049V133.852C188.768 136.022 187.621 138.031 185.753 139.131C183.839 140.259 181.465 140.259 179.551 139.131C177.683 138.031 176.536 136.022 176.536 133.852ZM176.536 159.792V155.99C176.536 153.82 177.683 151.811 179.551 150.711C181.465 149.583 183.839 149.583 185.753 150.711C187.621 151.811 188.768 153.82 188.768 155.99V159.792C188.768 161.963 187.621 163.971 185.753 165.072C183.839 166.199 181.465 166.199 179.551 165.072C177.683 163.971 176.536 161.963 176.536 159.792Z" fill="#B5A5A1"/>
<path d="M213.231 244V121.502H221.865V114.296H214.67V91.2381H210.353H207.475L206.036 244H213.231Z" fill="#F3F2F2"/>
<path d="M152.182 64.5332V84.6887H154.348V63.0936L148.572 61.6539L150.318 27.8215L144.962 64.5332H152.182Z" fill="#4A3C3B"/>
<path d="M154.348 24.9422H150.738L150.318 27.8215L148.572 61.6539L154.348 63.0936V84.6887H156.514H167.525L168.349 72.2476C168.622 68.1202 171.002 64.4245 174.647 62.468L177.192 61.1018C180.736 59.1988 184.999 59.1988 188.543 61.1018L191.088 62.468C194.733 64.4245 197.113 68.1202 197.386 72.2476L198.21 84.6887H210.665H212.109V62.3737H216.441L203.851 26.3819L199.113 47.977H189.005L183.229 22.0628H178.174L172.398 47.977H159.402L154.348 24.9422Z" fill="#D9D9D9"/>
<path d="M154.348 24.9422H150.738L150.318 27.8215L148.572 61.6539L154.348 63.0936V84.6887H156.514H167.525L168.349 72.2476C168.622 68.1202 171.002 64.4245 174.647 62.468L177.192 61.1018C180.736 59.1988 184.999 59.1988 188.543 61.1018L191.088 62.468C194.733 64.4245 197.113 68.1202 197.386 72.2476L198.21 84.6887H210.665H212.109V62.3737H216.441L203.851 26.3819L199.113 47.977H189.005L183.229 22.0628H178.174L172.398 47.977H159.402L154.348 24.9422Z" fill="#92807D"/>
<path d="M207.777 24.9422H204.167L203.851 26.3819L216.441 62.3737H212.109V84.6887H213.553V64.5332H220.773L207.777 24.9422Z" fill="#D6C7C3"/>
<path d="M154.348 24.9422H150.738L150.318 27.8215L148.572 61.6539L154.348 63.0936V84.6887H156.514H167.525L168.254 73.6758C168.587 68.6591 171.484 64.1657 175.924 61.7821C180.259 59.4551 185.476 59.4551 189.811 61.7821C194.251 64.1657 197.148 68.6591 197.481 73.6757L198.21 84.6887H210.665H212.109V62.3737H216.441L203.851 26.3819L199.113 47.977H189.005L183.229 22.0628H178.174L172.398 47.977H159.402L154.348 24.9422Z" fill="#D9D9D9"/>
<path d="M154.348 24.9422H150.738L150.318 27.8215L148.572 61.6539L154.348 63.0936V84.6887H156.514H167.525L168.254 73.6758C168.587 68.6591 171.484 64.1657 175.924 61.7821C180.259 59.4551 185.476 59.4551 189.811 61.7821C194.251 64.1657 197.148 68.6591 197.481 73.6757L198.21 84.6887H210.665H212.109V62.3737H216.441L203.851 26.3819L199.113 47.977H189.005L183.229 22.0628H178.174L172.398 47.977H159.402L154.348 24.9422Z" fill="#92807D"/>
<path d="M154.348 24.9422H150.738L150.318 27.8215L148.572 61.6539L154.348 63.0936V84.6887H156.514H167.525L168.254 73.6758C168.587 68.6591 171.484 64.1657 175.924 61.7821C180.259 59.4551 185.476 59.4551 189.811 61.7821C194.251 64.1657 197.148 68.6591 197.481 73.6757L198.21 84.6887H210.665H212.109V62.3737H216.441L203.851 26.3819L199.113 47.977H189.005L183.229 22.0628H178.174L172.398 47.977H159.402L154.348 24.9422Z" fill="#6E5D5B"/>
<path d="M214.67 91.2809H223.304V84.6887H213.231H210.353V91.2809H214.67Z" fill="#CDC1BC"/>
<path d="M142 91.2809H150.634H156.39V84.6887H154.232H152.073H142V91.2809Z" fill="#302221"/>
<path fill-rule="evenodd" clip-rule="evenodd" d="M167.23 84.6887H156.283V91.2809H159.872H207.248H210.119V84.6887H197.737H182.484H167.23Z" fill="#453330"/>
<path d="M151.808 121.537V244H159.791V91.2809H156.162H150.356V114.333H143.099V121.537H151.808Z" fill="#6E5D5B"/>
<path d="M213.496 244V121.537H222.205V114.333H214.947V91.2809H210.593H207.69L206.239 244H213.496Z" fill="#F3F2F2"/>
<path fill-rule="evenodd" clip-rule="evenodd" d="M159.579 91.2809H207.922L206.457 244H193.273V225.787C193.273 221.921 190.139 218.787 186.273 218.787H179.763C175.897 218.787 172.763 221.921 172.763 225.787V244H159.579V91.2809ZM185.769 98.8475C183.841 97.7317 181.463 97.7317 179.534 98.8475C177.61 99.9604 176.426 102.014 176.426 104.237V107.86C176.426 110.083 177.61 112.137 179.534 113.25C181.463 114.365 183.841 114.365 185.769 113.25C187.693 112.137 188.878 110.083 188.878 107.86V104.237C188.878 102.014 187.693 99.9604 185.769 98.8475ZM176.426 133.883V130.081C176.426 127.911 177.593 125.904 179.495 124.804C181.443 123.676 183.86 123.676 185.808 124.804C187.71 125.904 188.878 127.911 188.878 130.081V133.883C188.878 136.052 187.71 138.06 185.808 139.16C183.86 140.288 181.443 140.288 179.495 139.16C177.593 138.06 176.426 136.052 176.426 133.883ZM176.426 159.816V156.015C176.426 153.845 177.593 151.837 179.495 150.737C181.443 149.61 183.86 149.61 185.808 150.737C187.71 151.837 188.878 153.845 188.878 156.015V159.816C188.878 161.986 187.71 163.994 185.808 165.094C183.86 166.221 181.443 166.221 179.495 165.094C177.593 163.994 176.426 161.986 176.426 159.816Z" fill="#B5A5A1"/>
<path d="M284.512 276.964H274.012C278.606 255.964 286.743 209.24 287.793 198.215C288.014 195.892 288.356 191.741 288.774 186.403H299.816C299.498 190.882 299.205 194.894 298.949 198.215C297.374 218.69 288.668 259.245 284.512 276.964Z" fill="#5C451D"/>
<path d="M273.356 128.654C263.906 125.504 257.606 131.279 255.637 134.561C252.137 138.06 243.038 148.079 234.638 160.154C224.138 175.247 234.638 179.841 237.263 190.341C239.363 198.74 236.388 207.403 234.638 210.684C238.575 216.152 249.6 226.04 262.2 221.84C274.799 217.64 288.887 220.09 294.355 221.84C301.574 222.496 319.03 222.365 331.104 216.59C343.179 210.815 340.948 201.934 338.323 198.215C338.542 195.372 340.554 187.191 346.854 177.216C354.729 164.747 348.167 155.56 342.261 150.31C337.536 146.11 331.542 150.748 329.136 153.591C328.917 151.841 326.642 147.685 319.292 145.06C311.942 142.435 296.98 142.654 290.418 143.092C288.668 139.592 282.806 131.804 273.356 128.654Z" fill="#749532"/>
<path d="M108.2 249.402H99.427C103.265 231.855 110.065 192.813 110.942 183.601C111.127 181.66 111.412 178.191 111.762 173.731H120.988C120.723 177.474 120.477 180.826 120.264 183.601C118.948 200.709 111.673 234.597 108.2 249.402Z" fill="#5C451D"/>
<path d="M98.8786 125.478C90.9826 122.846 85.7185 127.671 84.0735 130.413C81.1491 133.337 73.5455 141.709 66.5268 151.798C57.7534 164.41 66.5268 168.248 68.7201 177.021C70.4748 184.04 67.989 191.278 66.5268 194.02C69.8168 198.589 79.0288 206.851 89.5569 203.341C100.085 199.832 111.856 201.879 116.425 203.341C122.457 203.89 137.043 203.78 147.132 198.955C157.222 194.129 155.357 186.709 153.164 183.601C153.347 181.225 155.028 174.389 160.292 166.055C166.872 155.636 161.389 147.96 156.454 143.573C152.506 140.063 147.498 143.938 145.487 146.315C145.304 144.852 143.404 141.38 137.262 139.186C131.121 136.993 118.619 137.176 113.135 137.541C111.673 134.617 106.775 128.11 98.8786 125.478Z" fill="#749532"/>
<path d="M346.544 135.789C337.799 131.021 330.579 135.593 328.062 138.476C323.999 141.303 313.274 149.558 302.875 159.961C289.876 172.964 299.4 179.339 300.131 190.137C300.715 198.776 296.258 206.777 293.956 209.698C296.867 215.775 305.973 227.453 319.116 225.543C332.26 223.633 345.693 228.531 350.767 231.218C357.757 233.138 374.962 236.09 387.866 232.537C400.77 228.984 400.142 219.849 398.214 215.725C398.932 212.965 402.356 205.267 410.318 196.561C420.27 185.678 415.432 175.477 410.545 169.267C406.636 164.299 399.918 167.806 397.047 170.18C397.141 168.419 395.635 163.926 388.864 160.045C382.093 156.165 367.327 153.739 360.79 153.011C359.686 149.258 355.29 140.558 346.544 135.789Z" fill="#749532"/>
<path d="M48.1107 262.373L40.3968 262.93C42.659 247.258 46.1617 212.5 46.3489 204.345C46.5362 196.189 46.535 157.645 46.511 139.392L54.225 138.836C54.3618 154.173 54.6173 188.628 54.545 203.754C54.4728 218.879 50.2254 249.136 48.1107 262.373Z" fill="#5C451D"/>
<path d="M30.7262 122.115C22.7897 119.586 10.9607 125.802 6.03825 129.226L22.4304 128.044C27.4445 127.682 29.7117 132.688 30.2186 135.236C27.3259 135.445 20.1636 136.931 14.6562 141.205C9.14892 145.479 6.83723 155.985 6.3698 160.703C7.40204 159.337 10.6296 155.259 15.2821 149.883C19.9346 144.508 29.5008 143.204 33.7024 143.224C32.1317 146.083 28.6888 154.344 27.4836 164.512C26.2783 174.679 38.353 178.59 44.541 179.274C43.345 176.13 40.6488 168.311 39.4323 162.196C38.2159 156.08 43.2136 151.908 45.8645 150.586C48.8036 151.02 55.3368 152.907 57.957 156.983C60.5771 161.059 59.9759 171.538 59.3478 176.268C64.1775 171.558 73.6153 160.409 72.7289 153.494C71.8425 146.58 62.6182 140.977 58.1169 139.04C61.4569 138.315 69.6044 137.048 75.4733 137.788C81.3422 138.528 96.2888 141.941 103.028 143.555C100.696 140.331 94.7285 133.298 89.5197 130.96C84.3109 128.621 71.5073 129.836 65.7566 130.735C67.3058 129.816 72.1188 127.562 78.9779 125.904C85.837 124.247 99.6296 125.546 105.669 126.403C99.146 123.319 84.551 117.167 78.3521 117.226C72.1531 117.286 61.63 122.794 57.1433 125.541C57.508 121.637 57.4093 111.758 54.0975 103.467C50.7857 95.1766 37.0578 97.9113 30.6079 100.315C32.422 100.83 37.4012 103.121 42.8047 108.159C48.2082 113.197 46.0297 123.757 44.2651 128.408C43.059 127.364 38.6627 124.644 30.7262 122.115Z" fill="#8EB33E"/>
<path d="M89.8835 109.125C74.4556 110.238 64.6818 120.312 58.1074 125.471C64.7413 123.377 80.516 119.009 90.5441 118.285C100.572 117.562 116.515 124.49 123.233 128.044C116.135 121.448 105.311 108.013 89.8835 109.125Z" fill="#8EB33E"/>
<path d="M99.8527 133.122C89.2441 131.173 73.6225 134.529 67.1378 136.451C74.7606 136.87 92.059 137.949 100.27 138.908C108.481 139.866 120.984 146.137 126.21 149.153C121.844 144.621 110.461 135.071 99.8527 133.122Z" fill="#8EB33E"/>
<path d="M119.175 186.007C115.587 176.574 103.445 158.743 92.3915 150.622C81.8274 142.862 75.13 139.752 58.9766 137.524C66.8891 141.961 81.3026 151.422 89.5381 158.098C97.7737 164.773 111.73 176.852 119.175 186.007Z" fill="#8EB33E"/>
<path d="M15.7087 169.238C13.1516 176.789 15.0033 195.297 16.2489 203.608C16.9218 197.259 18.6176 182.695 20.0176 175.227C21.4176 167.76 25.8239 154.939 27.852 149.461C24.8697 152.907 18.2658 161.687 15.7087 169.238Z" fill="#8EB33E"/>
<path d="M26.0416 171.4C25.413 178.812 28.4825 198.525 30.0957 207.455C29.4003 197.813 29.7231 181.514 31.0368 173.463C32.7173 163.165 34.2007 150.134 35.1834 143.602C32.3981 149.78 26.6702 163.989 26.0416 171.4Z" fill="#8EB33E"/>
<path d="M9.36201 155.157C0.0357648 165.39 -5.42766 183.039 -7.79729 192.741C-3.5656 186.459 5.94269 170.911 14.1184 160.629C22.294 150.347 36.4675 141.248 42.0328 137.777C36.6266 138.974 18.3438 145.301 9.36201 155.157Z" fill="#8EB33E"/>
<path d="M6.94232 141.761C-5.61511 150.421 -10.1931 163.998 -11.8419 170.255C-7.47263 163.64 3.1745 152.995 10.2523 147.338C17.5838 141.479 31.8589 133.341 37.6545 130.823C33.269 130.493 19.4998 133.102 6.94232 141.761Z" fill="#8EB33E"/>
<path d="M15.393 111.105C9.16623 110.779 -0.883243 113.894 -5.12963 115.493C-2.33116 111.737 5.59387 104.251 14.9063 104.355C24.2187 104.459 34.4756 115.867 38.44 121.559C33.3522 118.21 21.6199 111.431 15.393 111.105Z" fill="#8EB33E"/>
<path d="M26.3384 101.592C17.6144 95.4044 0.836038 92.931 -7.21094 93.3498C-0.229414 96.0772 16.2824 101.93 22.8986 107.656C29.5149 113.382 38.6836 124.933 41.7849 127.618C40.5078 123.348 35.0212 107.751 26.3384 101.592Z" fill="#8EB33E"/>
<path d="M47.0187 126.271C48.6095 119.21 51.2446 101.541 49.0583 87.3532C46.4051 70.1357 35.3309 63.8201 21.116 69.4985C25.9403 73.6738 36.7201 84.2691 41.2447 93.2477C45.7692 102.226 46.9792 119.004 47.0187 126.271Z" fill="#8EB33E"/>
<path d="M64.7462 163.763C64.0192 148.307 58.4167 140.957 55.7063 139.214L60.0454 138.901C63.9519 143.789 72.386 155.458 74.8708 163.033C77.3556 170.607 68.0485 191.633 63.0844 201.199C63.9412 195.16 65.4731 179.219 64.7462 163.763Z" fill="#8EB33E"/>
<path d="M72.9003 102.111C68.1681 111.757 56.8883 122.005 51.8399 125.923C52.3985 120.229 55.147 107.269 61.6723 100.982C68.1977 94.6963 76.0224 84.924 79.1191 80.8236C79.0179 83.9002 77.6325 92.465 72.9003 102.111Z" fill="#8EB33E"/>
<path d="M104.649 145.861C92.9628 139.726 72.8904 137.813 64.3149 137.624C73.7187 140.338 94.6345 146.778 103.068 150.822C111.501 154.866 126.198 164.662 132.491 169.054C128.08 163.88 116.335 151.997 104.649 145.861Z" fill="#8EB33E"/>
<path d="M-136.3 257.509C-158.201 252.66 -451.741 207.44 -473.369 207.635L-351.571 190.354C-327.191 198.76 -81.359 255.255 -37.7221 256.121C11.4724 257.098 163.354 229.581 251.425 247.587C339.496 265.594 334.18 293.535 505.501 323.601C676.821 353.667 870.602 387.84 988.179 417.574C1105.34 447.202 1622.27 589.966 1809.19 763.76C1810.52 764.995 1811.33 766.609 1811.58 768.405L1812.5 774.867C1813.56 782.358 1804.47 787.193 1798.69 782.304C1600.54 614.569 1106.85 478.293 992.698 449.425C875.121 419.691 681.341 385.517 510.02 355.451C338.699 325.385 344.015 297.444 255.944 279.438C167.873 261.432 15.9915 288.949 -33.203 287.972C-82.3976 286.995 -108.923 263.571 -136.3 257.509Z" fill="#DFD3CF"/>
<path d="M-136.265 257.551C-158.168 252.706 -451.714 207.496 -473.344 207.693L-835.993 259.147C-827.829 257.989 -779.356 269.492 -562.172 330.245C-558.932 331.151 -556.311 334.071 -556.98 337.368C-561.934 361.771 -616.244 363.1 -704.29 436.234C-798.592 514.565 -850.927 678.403 -869.951 857.397C-885.054 999.495 -683.26 1181.57 -578.126 1256.65C-576.53 1257.79 -574.713 1258.26 -572.764 1258.05C287.063 1162.28 1963.89 936.567 1815.89 797.095C1630.68 622.556 1110.42 478.987 992.831 449.278C875.244 419.568 681.447 385.428 510.112 355.391C338.776 325.354 344.095 297.426 256.017 279.436C167.938 261.446 16.0393 288.963 -33.1601 287.99C-82.3594 287.018 -108.886 263.608 -136.265 257.551Z" fill="#D3E3F2"/>
</g>
<path d="M152.238 64.7241V85H154.41V63.2759L148.619 61.8276L150.369 27.7931L145 64.7241H152.238Z" fill="#4A3C3B"/>
<path d="M154.41 24.8966H150.79L150.369 27.7931L148.619 61.8276L154.41 63.2759V85H156.581H167.619L168.448 72.4356C168.721 68.3132 171.094 64.6207 174.731 62.6614L177.309 61.2728C180.862 59.3589 185.138 59.3589 188.691 61.2728L191.269 62.6614C194.906 64.6207 197.279 68.3132 197.552 72.4356L198.381 85H210.867H212.314V62.5517H216.657L204.036 26.3448L199.286 48.069H189.152L183.362 22H178.295L172.505 48.069H159.476L154.41 24.8966Z" fill="#D9D9D9"/>
<path d="M154.41 24.8966H150.79L150.369 27.7931L148.619 61.8276L154.41 63.2759V85H156.581H167.619L168.448 72.4356C168.721 68.3132 171.094 64.6207 174.731 62.6614L177.309 61.2728C180.862 59.3589 185.138 59.3589 188.691 61.2728L191.269 62.6614C194.906 64.6207 197.279 68.3132 197.552 72.4356L198.381 85H210.867H212.314V62.5517H216.657L204.036 26.3448L199.286 48.069H189.152L183.362 22H178.295L172.505 48.069H159.476L154.41 24.8966Z" fill="#92807D"/>
<path d="M207.971 24.8966H204.352L204.036 26.3448L216.657 62.5517H212.314V85H213.762V64.7241H221L207.971 24.8966Z" fill="#D6C7C3"/>
<path d="M154.41 24.8966H150.79L150.369 27.7931L148.619 61.8276L154.41 63.2759V85H156.581H167.619L168.35 73.9213C168.683 68.8746 171.588 64.3544 176.039 61.9566C180.385 59.6157 185.615 59.6157 189.961 61.9566C194.412 64.3544 197.317 68.8746 197.65 73.9213L198.381 85H210.867H212.314V62.5517H216.657L204.036 26.3448L199.286 48.069H189.152L183.362 22H178.295L172.505 48.069H159.476L154.41 24.8966Z" fill="#D9D9D9"/>
<path d="M154.41 24.8966H150.79L150.369 27.7931L148.619 61.8276L154.41 63.2759V85H156.581H167.619L168.35 73.9213C168.683 68.8746 171.588 64.3544 176.039 61.9566C180.385 59.6157 185.615 59.6157 189.961 61.9566C194.412 64.3544 197.317 68.8746 197.65 73.9213L198.381 85H210.867H212.314V62.5517H216.657L204.036 26.3448L199.286 48.069H189.152L183.362 22H178.295L172.505 48.069H159.476L154.41 24.8966Z" fill="#92807D"/>
<path d="M154.41 24.8966H150.79L150.369 27.7931L148.619 61.8276L154.41 63.2759V85H156.581H167.619L168.35 73.9213C168.683 68.8746 171.588 64.3544 176.039 61.9566C180.385 59.6157 185.615 59.6157 189.961 61.9566C194.412 64.3544 197.317 68.8746 197.65 73.9213L198.381 85H210.867H212.314V62.5517H216.657L204.036 26.3448L199.286 48.069H189.152L183.362 22H178.295L172.505 48.069H159.476L154.41 24.8966Z" fill="#6E5D5B"/>
</svg>
