<svg width="840" height="328" viewBox="0 0 840 328" fill="none" xmlns="http://www.w3.org/2000/svg">
<g clip-path="url(#clip0_18_621)">
<rect width="840" height="328" fill="#D3E3F2"/>
<path d="M741.5 369.5L-10.5 180L-12.5 364.5L741.5 369.5Z" fill="#D0EEF0"/>
<path d="M322.828 -35.981L0 -55.7953M297.939 118.184L232.576 198.938M321.684 -28.8911L0 -40.5721M320.605 -22.2076H0M319.239 -13.7503L0 -3.84313M0 23.4619L317.074 -0.33938M316.508 3.16437L0 33.1275M315.377 10.1719L0 59.7076M313.622 21.0456L0 106.585M311.983 31.1944L25.372 128.931M310.54 40.135L51.2729 137.682M308.94 50.0421L79.9821 147.382M307.126 61.2814L105.475 155.995M304.337 78.5554L149.574 170.895M301.138 98.3697L189.927 184.529M349.204 -35.4977L627.533 332.381M351.791 -25.1073L614.727 328.054M355.4 -10.609L590.804 319.971M359.701 6.66812L570.99 313.277M364.109 24.3758L557.942 308.868M368.032 40.135L554.196 307.602M371.789 55.2282L543.443 303.969M374.929 70.098L537.765 302.051M377.596 78.5554L524.475 297.561M378.92 83.8714L506.715 291.56M381.807 95.47L491.975 286.58M385.176 109.002L476.811 281.456M388.183 121.084L471.403 279.63" stroke="#CDC1BC"/>
<path d="M0 231.512L704.133 362.48H708.724L0 154.913V231.512Z" fill="#594541"/>
<path d="M710.898 362.48L0 137.032V154.913L708.724 362.48H710.898Z" fill="#CDC1BC"/>
<path d="M425.766 272.055L414.53 268.492L403.294 264.929L275.467 282.749L256.861 279.288L252.753 297.479L284.65 395.584L308.21 394.563L282.475 321.885L288.516 306.178L384.204 295.546L388.433 300.046L392.662 304.547L363.272 393.842L384.864 393.624L425.766 272.055Z" fill="#E1D6D2"/>
<path d="M432.532 274.201L425.766 272.055L384.864 393.624L399.669 393.475L432.532 274.201Z" fill="#F1ECE9"/>
<path d="M432.532 274.201L399.669 393.475L405.227 393.419L438.21 276.002L432.532 274.201Z" fill="#D9D9D9"/>
<path d="M432.532 274.201L399.669 393.475L405.227 393.419L438.21 276.002L432.532 274.201Z" fill="#3EA4B3"/>
<path d="M409.508 393.376L443.889 277.803L438.21 276.002L405.227 393.419L409.508 393.376Z" fill="#CDC1BC"/>
<path d="M288.516 306.178L282.475 321.885L308.21 394.563L310.746 394.153H332.423L304.464 321.885L308.572 309.319L388.433 300.046L384.204 295.546L288.516 306.178Z" fill="#B5A5A1"/>
<path d="M308.572 395.584H332.977L332.423 394.153H310.746L308.21 394.563L308.572 395.584Z" fill="#D9D9D9"/>
<path d="M308.572 395.584H332.977L332.423 394.153H310.746L308.21 394.563L308.572 395.584Z" fill="#B5A5A1"/>
<path d="M362.699 395.584H384.204L384.864 393.624L363.272 393.842L362.699 395.584Z" fill="#D9D9D9"/>
<path d="M362.699 395.584H384.204L384.864 393.624L363.272 393.842L362.699 395.584Z" fill="#E1D6D2"/>
<path d="M384.204 395.584H362.699L363.272 393.842C351.225 393.963 344.471 394.031 332.423 394.153L332.977 395.584H308.572H284.65L259.761 398.967H381.063L408.851 395.584H404.744H399.186H384.204Z" fill="#D9D9D9"/>
<path d="M384.204 395.584H362.699L363.272 393.842C351.225 393.963 344.471 394.031 332.423 394.153L332.977 395.584H308.572H284.65L259.761 398.967H381.063L408.851 395.584H404.744H399.186H384.204Z" fill="#92807D"/>
<path d="M381.063 412.74V398.967H259.761V413.707L381.063 412.74Z" fill="#D9D9D9"/>
<path d="M381.063 412.74V398.967H259.761V413.707L381.063 412.74Z" fill="#F1ECE9"/>
<path d="M430.116 393.168L408.851 395.584L381.063 398.967V412.74L430.116 410.082V393.168Z" fill="#D9D9D9"/>
<path d="M430.116 393.168L408.851 395.584L381.063 398.967V412.74L430.116 410.082V393.168Z" fill="#F9F7F5"/>
<path d="M408.851 395.584L430.116 393.168L409.508 393.376L408.851 395.584Z" fill="#D9D9D9"/>
<path d="M432.532 274.201L425.766 272.055L384.864 393.624L399.669 393.475L432.532 274.201Z" fill="#F1ECE9"/>
<path d="M432.532 274.201L425.766 272.055L384.864 393.624L399.669 393.475L432.532 274.201Z" fill="#F1ECE9"/>
<path d="M432.532 274.201L425.766 272.055L384.864 393.624L399.669 393.475L432.532 274.201Z" fill="#CDC1BC"/>
<path d="M308.21 394.563L284.65 395.584H308.572L308.21 394.563Z" fill="#E1D6D2"/>
<path d="M432.532 274.201L438.21 276.002L353.396 -58.5105L349.167 -57.8429L432.532 274.201Z" fill="#7FCAD1"/>
<path d="M443.889 277.803L357.624 -59.1782L353.396 -58.5105L438.21 276.002L443.889 277.803Z" fill="#D9D9D9"/>
<path d="M443.889 277.803L357.624 -59.1782L353.396 -58.5105L438.21 276.002L443.889 277.803Z" fill="#F1ECE9"/>
<path d="M343.851 -57.0035L425.766 272.055L432.532 274.201L349.167 -57.8429L343.851 -57.0035Z" fill="#D9D9D9"/>
<path d="M343.851 -57.0035L425.766 272.055L432.532 274.201L349.167 -57.8429L343.851 -57.0035Z" fill="#F1ECE9"/>
<path d="M425.766 272.055L343.851 -57.0035L320.654 -48.5462L266.768 221.632L291.415 229.449L319.068 46.9712C320.035 40.5956 324.624 35.3658 330.82 33.5795C339.885 30.9663 349.293 36.466 351.463 45.647L353.677 55.0146C357.791 57.2069 361.024 61.0496 362.29 65.9572L414.53 268.492L425.766 272.055Z" fill="#D9D9D9"/>
<path d="M425.766 272.055L343.851 -57.0035L320.654 -48.5462L266.768 221.632L291.415 229.449L319.068 46.9712C320.035 40.5956 324.624 35.3658 330.82 33.5795C339.885 30.9663 349.293 36.466 351.463 45.647L353.677 55.0146C357.791 57.2069 361.024 61.0496 362.29 65.9572L414.53 268.492L425.766 272.055Z" fill="#F9F7F5"/>
<path d="M319.068 46.9712L291.415 229.449L302.531 232.974L328.462 67.5974C329.455 61.2587 333.877 55.9913 339.948 53.9145C344.686 52.2935 349.612 52.8484 353.677 55.0146L351.463 45.647C349.293 36.466 339.885 30.9663 330.82 33.5795C324.624 35.3658 320.035 40.5956 319.068 46.9712Z" fill="#D9D9D9"/>
<path d="M319.068 46.9712L291.415 229.449L302.531 232.974L328.462 67.5974C329.455 61.2587 333.877 55.9913 339.948 53.9145C344.686 52.2935 349.612 52.8484 353.677 55.0146L351.463 45.647C349.293 36.466 339.885 30.9663 330.82 33.5795C324.624 35.3658 320.035 40.5956 319.068 46.9712Z" fill="#92807D"/>
<path d="M353.677 55.0146L403.294 264.929L414.53 268.492L362.29 65.9572C361.024 61.0496 357.791 57.2069 353.677 55.0146Z" fill="#D9D9D9"/>
<path d="M353.677 55.0146L403.294 264.929L414.53 268.492L362.29 65.9572C361.024 61.0496 357.791 57.2069 353.677 55.0146Z" fill="#F9F7F5"/>
<path fill-rule="evenodd" clip-rule="evenodd" d="M399.186 395.584H384.204L384.864 393.624L399.669 393.475L399.186 395.584ZM404.744 395.584H408.851L409.508 393.376L405.227 393.419L404.744 395.584Z" fill="#D9D9D9"/>
<path fill-rule="evenodd" clip-rule="evenodd" d="M399.186 395.584H384.204L384.864 393.624L399.669 393.475L399.186 395.584ZM404.744 395.584H408.851L409.508 393.376L405.227 393.419L404.744 395.584Z" fill="#F1ECE9"/>
<path fill-rule="evenodd" clip-rule="evenodd" d="M399.186 395.584H384.204L384.864 393.624L399.669 393.475L399.186 395.584ZM404.744 395.584H408.851L409.508 393.376L405.227 393.419L404.744 395.584Z" fill="#CDC1BC"/>
<path d="M405.227 393.419L399.669 393.475L399.186 395.584H404.744L405.227 393.419Z" fill="#D9D9D9"/>
<path d="M405.227 393.419L399.669 393.475L399.186 395.584H404.744L405.227 393.419Z" fill="#3EA4B3"/>
<path d="M0 137.032L710.898 362.48V360.547L0 120.359V137.032Z" fill="#F9F7F5"/>
<path d="M0 120.359L352.072 12.105M18.1228 126.482L352.791 14.9498M354.333 21.0456L38.1788 133.258M64.3671 142.106L355.738 26.6032M89.6476 150.648L357.388 33.1274M121.302 161.343L359.16 40.1349M170.355 177.916L361.176 48.109M213.849 192.611L362.765 54.3916M251.303 205.265L364.109 59.7076M283.683 216.205L365.392 64.782M312.921 226.084L366.736 70.098M339.26 234.983L368.875 78.5554M364.109 243.379L370.83 86.2878M339.26 -37.6724L0 -86M342.496 -25.1073L0 -49.2711M344.239 -18.3414L0 -35.4977M346.23 -10.609L0 -17.6165M347.973 -3.84314L0 7.99711M349.778 3.16436L0 35.7855M350.681 6.66811L0 70.098M0 97.1615L351.132 8.41998M364.109 -33.8453L607.477 325.604M366.346 -25.1073L597.812 322.339M368.875 -15.2276L583.797 317.603M371.789 -3.84314L565.433 311.399M374.929 8.41998L550.451 306.337M379.027 24.4285L532.086 300.132M383.047 40.1349L501.64 289.846M386.697 54.3916L487.625 285.11M389.79 66.4735L465.996 277.803M394.244 83.8714L452 273.074M516.863 294.989L381.037 32.2817" stroke="#6E5854"/>
</g>
<defs>
<clipPath id="clip0_18_621">
<rect width="840" height="328" fill="white"/>
</clipPath>
</defs>
</svg>
