<svg width="840" height="328" viewBox="0 0 840 328" fill="none" xmlns="http://www.w3.org/2000/svg">
<g clip-path="url(#clip0_18_408)">
<rect width="840" height="328" fill="#FFFBF5"/>
<path d="M414.687 243.891L406.973 244.447C409.236 228.776 412.738 194.017 412.926 185.862C413.113 177.707 413.112 139.163 413.088 120.91L420.802 120.354C420.938 135.69 421.194 170.145 421.122 185.271C421.049 200.397 416.802 230.653 414.687 243.891Z" fill="#5C451D"/>
<path d="M397.303 103.632C389.367 101.103 377.538 107.319 372.615 110.744L389.007 109.561C394.021 109.2 396.289 114.206 396.796 116.754C393.903 116.963 386.74 118.448 381.233 122.723C375.726 126.997 373.414 137.502 372.947 142.221C373.979 140.854 377.207 136.776 381.859 131.401C386.511 126.025 396.078 124.721 400.279 124.741C398.709 127.601 395.266 135.862 394.06 146.029C392.855 156.196 404.93 160.107 411.118 160.792C409.922 157.647 407.226 149.829 406.009 143.713C404.793 137.598 409.79 133.425 412.441 132.103C415.38 132.537 421.914 134.425 424.534 138.5C427.154 142.576 426.553 153.055 425.925 157.785C430.754 153.075 440.192 141.927 439.306 135.012C438.419 128.097 429.195 122.494 424.694 120.557C428.034 119.832 436.181 118.566 442.05 119.306C447.919 120.046 462.866 123.459 469.605 125.073C467.273 121.848 461.305 114.815 456.097 112.477C450.888 110.139 438.084 111.353 432.334 112.252C433.883 111.333 438.696 109.08 445.555 107.422C452.414 105.764 466.207 107.063 472.245 107.92C465.723 104.837 451.128 98.6843 444.929 98.7437C438.73 98.803 428.207 104.311 423.72 107.058C424.085 103.155 423.986 93.2753 420.674 84.9847C417.363 76.694 403.635 79.4287 397.185 81.8324C398.999 82.3477 403.978 84.638 409.382 89.6761C414.785 94.7143 412.607 105.275 410.842 109.925C409.636 108.881 405.24 106.162 397.303 103.632Z" fill="#8EB33E"/>
<path d="M456.46 90.6426C441.032 91.7552 431.258 101.83 424.684 106.988C431.318 104.895 447.093 100.526 457.121 99.8029C467.149 99.0797 483.092 106.007 489.81 109.561C482.711 102.965 471.888 89.5299 456.46 90.6426Z" fill="#8EB33E"/>
<path d="M466.43 114.64C455.821 112.691 440.199 116.047 433.715 117.968C441.338 118.388 458.636 119.467 466.847 120.425C475.058 121.384 487.561 127.655 492.786 130.67C488.421 126.139 477.038 116.589 466.43 114.64Z" fill="#8EB33E"/>
<path d="M485.752 167.525C482.163 158.091 470.022 140.26 458.968 132.14C448.404 124.379 441.707 121.269 425.553 119.042C433.466 123.479 447.879 132.94 456.115 139.615C464.35 146.291 478.306 158.369 485.752 167.525Z" fill="#8EB33E"/>
<path d="M382.285 150.755C379.728 158.306 381.58 176.815 382.826 185.125C383.498 178.776 385.194 164.212 386.594 156.745C387.994 149.277 392.401 136.456 394.429 130.979C391.446 134.425 384.842 143.204 382.285 150.755Z" fill="#8EB33E"/>
<path d="M392.618 152.918C391.99 160.33 395.059 180.043 396.672 188.973C395.977 179.33 396.3 163.032 397.613 154.981C399.294 144.682 400.777 131.652 401.76 125.119C398.975 131.297 393.247 145.506 392.618 152.918Z" fill="#8EB33E"/>
<path d="M375.939 136.674C366.612 146.908 361.149 164.557 358.779 174.259C363.011 167.976 372.519 152.429 380.695 142.147C388.871 131.864 403.044 122.765 408.609 119.294C403.203 120.492 384.921 126.818 375.939 136.674Z" fill="#8EB33E"/>
<path d="M373.519 123.279C360.962 131.939 356.384 145.515 354.735 151.773C359.104 145.158 369.751 134.513 376.829 128.856C384.16 122.996 398.436 114.859 404.231 112.341C399.846 112.011 386.076 114.619 373.519 123.279Z" fill="#8EB33E"/>
<path d="M381.97 92.6223C375.743 92.2959 365.693 95.4115 361.447 97.0101C364.245 93.2543 372.171 85.7687 381.483 85.8726C390.795 85.9764 401.052 97.3847 405.017 103.076C399.929 99.7274 388.197 92.9486 381.97 92.6223Z" fill="#8EB33E"/>
<path d="M392.915 83.1096C384.191 76.9218 367.413 74.4485 359.366 74.8672C366.347 77.5946 382.859 83.4471 389.475 89.1732C396.092 94.8994 405.26 106.451 408.362 109.135C407.084 104.865 401.598 89.2682 392.915 83.1096Z" fill="#8EB33E"/>
<path d="M413.595 107.788C415.186 100.727 417.821 83.0581 415.635 68.8707C412.982 51.6531 401.908 45.3376 387.693 51.016C392.517 55.1913 403.297 65.7865 407.821 74.7651C412.346 83.7437 413.556 100.522 413.595 107.788Z" fill="#8EB33E"/>
<path d="M431.323 145.28C430.596 129.824 424.993 122.474 422.283 120.731L426.622 120.418C430.529 125.306 438.963 136.975 441.447 144.55C443.932 152.125 434.625 173.151 429.661 182.717C430.518 176.678 432.05 160.736 431.323 145.28Z" fill="#8EB33E"/>
<path d="M439.477 83.6286C434.745 93.2748 423.465 103.522 418.417 107.44C418.975 101.746 421.724 88.786 428.249 82.4998C434.774 76.2137 442.599 66.4414 445.696 62.341C445.595 65.4176 444.209 73.9824 439.477 83.6286Z" fill="#8EB33E"/>
<path d="M471.225 127.379C459.539 121.243 439.467 119.331 430.892 119.141C440.295 121.855 461.211 128.295 469.645 132.339C478.078 136.383 492.774 146.179 499.068 150.572C494.656 145.397 482.911 133.515 471.225 127.379Z" fill="#8EB33E"/>
<path d="M330.472 121.506V233H337.675V93.961H334.401H329.162V114.948H322.613V121.506H330.472Z" fill="#6E5D5B"/>
<path d="M352.737 156.357V152.896C352.737 150.921 353.781 149.093 355.481 148.091C357.223 147.065 359.384 147.065 361.126 148.091C362.826 149.093 363.87 150.921 363.87 152.896V156.357C363.87 158.333 362.826 160.16 361.126 161.162C359.384 162.188 357.223 162.188 355.481 161.162C353.781 160.16 352.737 158.333 352.737 156.357Z" fill="#E6E0DC"/>
<path d="M352.737 132.747V129.286C352.737 127.31 353.781 125.482 355.481 124.481C357.223 123.455 359.384 123.455 361.126 124.481C362.826 125.482 363.87 127.31 363.87 129.286V132.747C363.87 134.722 362.826 136.55 361.126 137.552C359.384 138.578 357.223 138.578 355.481 137.552C353.781 136.55 352.737 134.722 352.737 132.747Z" fill="#E6E0DC"/>
<path d="M361.129 100.872C359.386 99.8451 357.222 99.8451 355.478 100.872C353.78 101.873 352.737 103.697 352.737 105.668V109.143C352.737 111.115 353.78 112.939 355.478 113.939C357.222 114.967 359.386 114.967 361.129 113.939C362.828 112.939 363.87 111.115 363.87 109.143V105.668C363.87 103.697 362.828 101.873 361.129 100.872Z" fill="#E6E0DC"/>
<path d="M356.463 210.045C352.597 210.045 349.463 213.179 349.463 217.045V233H367.799V217.045C367.799 213.179 364.665 210.045 360.799 210.045H356.463Z" fill="#594541"/>
<path d="M344.388 88.0584H358.304H372.22L371.51 77.301C371.239 73.1802 368.867 69.4886 365.232 67.5284L363.999 66.8637C360.444 64.9465 356.163 64.9465 352.608 66.8637L351.375 67.5284C347.74 69.4886 345.369 73.1802 345.097 77.301L344.388 88.0584Z" fill="#E9E1DE"/>
<path d="M330.472 69.6948V88.0584H332.436V68.3831L327.198 67.0714L328.781 36.2468L323.923 69.6948H330.472Z" fill="#4A3C3B"/>
<path d="M387.445 93.961H395.304V88.0584H386.136H383.516V93.961H387.445Z" fill="#CDC1BC"/>
<path fill-rule="evenodd" clip-rule="evenodd" d="M344.388 88.0584H334.401V93.961H337.675H380.897H383.516V88.0584H372.22H358.304H344.388Z" fill="#453330"/>
<path d="M321.304 93.961H329.162H334.401V88.0584H332.436H330.472H321.304V93.961Z" fill="#302221"/>
<path d="M332.436 33.6234H329.162L328.781 36.2468L327.198 67.0714L332.436 68.3831V88.0584H334.401H344.388L345.097 77.301C345.369 73.1802 347.74 69.4886 351.375 67.5284L352.608 66.8637C356.163 64.9465 360.444 64.9465 363.999 66.8637L365.232 67.5284C368.867 69.4886 371.239 73.1802 371.51 77.301L372.22 88.0584H383.516H384.826V67.7273H388.755L377.336 34.9351L373.038 54.6104H363.87L358.631 31H354.047L348.808 54.6104H337.021L332.436 33.6234Z" fill="#D9D9D9"/>
<path d="M332.436 33.6234H329.162L328.781 36.2468L327.198 67.0714L332.436 68.3831V88.0584H334.401H344.388L345.097 77.301C345.369 73.1802 347.74 69.4886 351.375 67.5284L352.608 66.8637C356.163 64.9465 360.444 64.9465 363.999 66.8637L365.232 67.5284C368.867 69.4886 371.239 73.1802 371.51 77.301L372.22 88.0584H383.516H384.826V67.7273H388.755L377.336 34.9351L373.038 54.6104H363.87L358.631 31H354.047L348.808 54.6104H337.021L332.436 33.6234Z" fill="#92807D"/>
<path d="M380.897 33.6234H377.622L377.336 34.9351L388.755 67.7273H384.826V88.0584H386.136V69.6948H392.684L380.897 33.6234Z" fill="#D6C7C3"/>
<path d="M332.436 33.6234H329.162L328.781 36.2468L327.198 67.0714L332.436 68.3831V88.0584H334.401H344.388L345.049 78.0246C345.351 73.4539 347.979 69.3599 352.006 67.1883C355.938 65.0681 360.67 65.0681 364.601 67.1883C368.628 69.3599 371.257 73.4538 371.558 78.0246L372.22 88.0584H383.516H384.826V67.7273H388.755L377.336 34.9351L373.038 54.6104H363.87L358.631 31H354.047L348.808 54.6104H337.021L332.436 33.6234Z" fill="#D9D9D9"/>
<path d="M332.436 33.6234H329.162L328.781 36.2468L327.198 67.0714L332.436 68.3831V88.0584H334.401H344.388L345.049 78.0246C345.351 73.4539 347.979 69.3599 352.006 67.1883C355.938 65.0681 360.67 65.0681 364.601 67.1883C368.628 69.3599 371.257 73.4538 371.558 78.0246L372.22 88.0584H383.516H384.826V67.7273H388.755L377.336 34.9351L373.038 54.6104H363.87L358.631 31H354.047L348.808 54.6104H337.021L332.436 33.6234Z" fill="#92807D"/>
<path d="M332.436 33.6234H329.162L328.781 36.2468L327.198 67.0714L332.436 68.3831V88.0584H334.401H344.388L345.049 78.0246C345.351 73.4539 347.979 69.3599 352.006 67.1883C355.938 65.0681 360.67 65.0681 364.601 67.1883C368.628 69.3599 371.257 73.4538 371.558 78.0246L372.22 88.0584H383.516H384.826V67.7273H388.755L377.336 34.9351L373.038 54.6104H363.87L358.631 31H354.047L348.808 54.6104H337.021L332.436 33.6234Z" fill="#6E5D5B"/>
<path fill-rule="evenodd" clip-rule="evenodd" d="M337.675 93.961H380.897L379.587 233H367.799V217.045C367.799 213.179 364.665 210.045 360.799 210.045H356.463C352.597 210.045 349.463 213.179 349.463 217.045V233H337.675V93.961ZM361.129 100.872C359.386 99.8451 357.222 99.8451 355.478 100.872C353.78 101.873 352.737 103.697 352.737 105.668V109.143C352.737 111.115 353.78 112.939 355.478 113.939C357.222 114.967 359.386 114.967 361.129 113.939C362.828 112.939 363.87 111.115 363.87 109.143V105.668C363.87 103.697 362.828 101.873 361.129 100.872ZM352.737 132.747V129.286C352.737 127.31 353.781 125.482 355.481 124.481C357.223 123.455 359.384 123.455 361.126 124.481C362.826 125.482 363.87 127.31 363.87 129.286V132.747C363.87 134.722 362.826 136.55 361.126 137.552C359.384 138.578 357.223 138.578 355.481 137.552C353.781 136.55 352.737 134.722 352.737 132.747ZM352.737 156.357V152.896C352.737 150.921 353.781 149.093 355.481 148.091C357.223 147.065 359.384 147.065 361.126 148.091C362.826 149.093 363.87 150.921 363.87 152.896V156.357C363.87 158.333 362.826 160.16 361.126 161.162C359.384 162.188 357.223 162.188 355.481 161.162C353.781 160.16 352.737 158.333 352.737 156.357Z" fill="#B5A5A1"/>
<path d="M386.136 233V121.506H393.994V114.948H387.445V93.961H383.516H380.897L379.587 233H386.136Z" fill="#F3F2F2"/>
<path d="M330.875 69.6552V88H332.847V68.3448L327.589 67.0345L329.179 36.2414L324.304 69.6552H330.875Z" fill="#4A3C3B"/>
<path d="M332.847 33.6207H329.561L329.179 36.2414L327.589 67.0345L332.847 68.3448V88H334.818H344.839L345.55 77.2726C345.823 73.1451 348.203 69.4494 351.848 67.4929L353.128 66.8057C356.672 64.9028 360.935 64.9028 364.48 66.8057L365.76 67.4929C369.404 69.4494 371.784 73.1451 372.057 77.2726L372.768 88H384.104H385.418V67.6897H389.361L377.902 34.931L373.589 54.5862H364.389L359.132 31H354.532L349.275 54.5862H337.447L332.847 33.6207Z" fill="#D9D9D9"/>
<path d="M332.847 33.6207H329.561L329.179 36.2414L327.589 67.0345L332.847 68.3448V88H334.818H344.839L345.55 77.2726C345.823 73.1451 348.203 69.4494 351.848 67.4929L353.128 66.8057C356.672 64.9028 360.935 64.9028 364.48 66.8057L365.76 67.4929C369.404 69.4494 371.784 73.1451 372.057 77.2726L372.768 88H384.104H385.418V67.6897H389.361L377.902 34.931L373.589 54.5862H364.389L359.132 31H354.532L349.275 54.5862H337.447L332.847 33.6207Z" fill="#92807D"/>
<path d="M381.475 33.6207H378.189L377.902 34.931L389.361 67.6897H385.418V88H386.732V69.6552H393.304L381.475 33.6207Z" fill="#D6C7C3"/>
<path d="M332.847 33.6207H329.561L329.179 36.2414L327.589 67.0345L332.847 68.3448V88H334.818H344.839L345.503 77.9764C345.806 73.4104 348.443 69.3207 352.484 67.1512C356.429 65.0332 361.178 65.0332 365.123 67.1512C369.164 69.3207 371.802 73.4104 372.104 77.9764L372.768 88H384.104H385.418V67.6897H389.361L377.902 34.931L373.589 54.5862H364.389L359.132 31H354.532L349.275 54.5862H337.447L332.847 33.6207Z" fill="#D9D9D9"/>
<path d="M332.847 33.6207H329.561L329.179 36.2414L327.589 67.0345L332.847 68.3448V88H334.818H344.839L345.503 77.9764C345.806 73.4104 348.443 69.3207 352.484 67.1512C356.429 65.0332 361.178 65.0332 365.123 67.1512C369.164 69.3207 371.802 73.4104 372.104 77.9764L372.768 88H384.104H385.418V67.6897H389.361L377.902 34.931L373.589 54.5862H364.389L359.132 31H354.532L349.275 54.5862H337.447L332.847 33.6207Z" fill="#92807D"/>
<path d="M332.847 33.6207H329.561L329.179 36.2414L327.589 67.0345L332.847 68.3448V88H334.818H344.839L345.503 77.9764C345.806 73.4104 348.443 69.3207 352.484 67.1512C356.429 65.0332 361.178 65.0332 365.123 67.1512C369.164 69.3207 371.802 73.4104 372.104 77.9764L372.768 88H384.104H385.418V67.6897H389.361L377.902 34.931L373.589 54.5862H364.389L359.132 31H354.532L349.275 54.5862H337.447L332.847 33.6207Z" fill="#6E5D5B"/>
<path d="M387.445 94H395.304V88H386.136H383.516V94H387.445Z" fill="#CDC1BC"/>
<path d="M321.304 94H329.162H334.401V88H332.436H330.472H321.304V94Z" fill="#302221"/>
<path fill-rule="evenodd" clip-rule="evenodd" d="M344.267 88H334.304V94H337.57H380.69H383.304V88H372.034H358.15H344.267Z" fill="#453330"/>
<path d="M330.23 121.538V233H337.496V94H334.194H328.909V114.981H322.304V121.538H330.23Z" fill="#6E5D5B"/>
<path d="M386.377 233V121.538H394.304V114.981H387.698V94H383.735H381.093L379.772 233H386.377Z" fill="#F3F2F2"/>
<path fill-rule="evenodd" clip-rule="evenodd" d="M337.304 94H381.304L379.97 233H367.97V217.052C367.97 213.186 364.836 210.052 360.97 210.052H356.304C352.438 210.052 349.304 213.186 349.304 217.052V233H337.304V94ZM361.141 100.887C359.386 99.8714 357.222 99.8714 355.466 100.887C353.715 101.9 352.637 103.769 352.637 105.792V109.09C352.637 111.113 353.715 112.982 355.466 113.995C357.222 115.011 359.386 115.011 361.141 113.995C362.892 112.982 363.97 111.113 363.97 109.09V105.792C363.97 103.769 362.892 101.9 361.141 100.887ZM352.637 132.775V129.315C352.637 127.34 353.7 125.513 355.431 124.511C357.204 123.485 359.403 123.485 361.177 124.511C362.908 125.513 363.97 127.34 363.97 129.315V132.775C363.97 134.75 362.908 136.577 361.177 137.578C359.403 138.604 357.204 138.604 355.431 137.578C353.7 136.577 352.637 134.75 352.637 132.775ZM352.637 156.379V152.919C352.637 150.944 353.7 149.116 355.431 148.115C357.204 147.089 359.403 147.089 361.177 148.115C362.908 149.116 363.97 150.944 363.97 152.919V156.379C363.97 158.353 362.908 160.181 361.177 161.182C359.403 162.208 357.204 162.208 355.431 161.182C353.7 160.181 352.637 158.353 352.637 156.379Z" fill="#B5A5A1"/>
<path d="M456.512 263.964H446.012C450.606 242.964 458.743 196.24 459.793 185.215C460.014 182.892 460.356 178.741 460.774 173.403H471.816C471.498 177.882 471.205 181.894 470.949 185.215C469.374 205.69 460.668 246.245 456.512 263.964Z" fill="#5C451D"/>
<path d="M445.356 115.654C435.906 112.504 429.606 118.279 427.637 121.561C424.137 125.06 415.038 135.079 406.638 147.154C396.138 162.247 406.638 166.841 409.263 177.341C411.363 185.74 408.388 194.403 406.638 197.684C410.575 203.152 421.6 213.04 434.2 208.84C446.799 204.64 460.887 207.09 466.355 208.84C473.574 209.496 491.03 209.365 503.104 203.59C515.179 197.815 512.948 188.934 510.323 185.215C510.542 182.372 512.554 174.191 518.854 164.216C526.729 151.747 520.167 142.56 514.261 137.31C509.536 133.11 503.542 137.748 501.136 140.591C500.917 138.841 498.642 134.685 491.292 132.06C483.942 129.435 468.98 129.654 462.418 130.092C460.668 126.592 454.806 118.804 445.356 115.654Z" fill="#749532"/>
<path d="M280.2 236.402H271.427C275.265 218.855 282.065 179.813 282.942 170.601C283.127 168.66 283.412 165.191 283.762 160.731H292.988C292.723 164.474 292.477 167.826 292.264 170.601C290.948 187.709 283.673 221.597 280.2 236.402Z" fill="#5C451D"/>
<path d="M270.879 112.478C262.983 109.846 257.719 114.671 256.074 117.413C253.149 120.337 245.545 128.709 238.527 138.798C229.753 151.41 238.527 155.248 240.72 164.021C242.475 171.04 239.989 178.278 238.527 181.02C241.817 185.589 251.029 193.851 261.557 190.341C272.085 186.832 283.856 188.879 288.425 190.341C294.457 190.89 309.043 190.78 319.132 185.955C329.222 181.129 327.357 173.709 325.164 170.601C325.347 168.225 327.028 161.389 332.292 153.055C338.872 142.636 333.389 134.96 328.454 130.573C324.506 127.063 319.498 130.938 317.487 133.315C317.304 131.852 315.404 128.38 309.262 126.186C303.121 123.993 290.619 124.176 285.135 124.541C283.673 121.617 278.775 115.11 270.879 112.478Z" fill="#749532"/>
<path d="M503.349 270.739L493.014 268.886C501.242 249.027 517.498 204.473 520.478 193.807C521.105 191.559 522.175 187.533 523.528 182.353L534.397 184.302C533.293 188.654 532.296 192.551 531.458 195.776C526.295 215.651 510.567 254.033 503.349 270.739Z" fill="#5C451D"/>
<path d="M518.544 122.789C509.799 118.021 502.579 122.593 500.062 125.476C495.999 128.303 485.274 136.558 474.875 146.961C461.876 159.964 471.4 166.339 472.131 177.137C472.715 185.776 468.258 193.777 465.956 196.698C468.867 202.775 477.973 214.453 491.116 212.543C504.26 210.633 517.693 215.531 522.767 218.218C529.757 220.138 546.962 223.09 559.866 219.537C572.77 215.984 572.142 206.849 570.214 202.725C570.932 199.965 574.356 192.267 582.318 183.561C592.27 172.678 587.432 162.477 582.545 156.267C578.636 151.299 571.918 154.806 569.047 157.18C569.141 155.419 567.635 150.926 560.864 147.045C554.093 143.165 539.327 140.739 532.79 140.011C531.686 136.258 527.29 127.558 518.544 122.789Z" fill="#749532"/>
<path d="M591.696 297.347H581.197C585.79 276.348 593.928 229.624 594.977 218.599C596.027 207.574 599.79 155.382 601.54 130.663H612.04C610.727 151.444 607.708 198.124 606.133 218.599C604.559 239.074 595.852 279.629 591.696 297.347Z" fill="#5C451D"/>
<path d="M581.853 105.727C571.353 101.527 554.728 108.789 547.728 112.945H570.04C576.865 112.945 579.447 119.945 579.884 123.445C575.947 123.445 566.103 124.757 558.228 130.007C550.353 135.257 546.197 149.257 545.104 155.6C546.635 153.85 551.403 148.644 558.228 141.819C565.053 134.995 578.134 134.163 583.821 134.601C581.415 138.32 575.947 149.169 573.322 162.819C570.697 176.469 586.665 182.944 594.977 184.475C593.665 180.1 590.778 169.25 589.728 160.85C588.678 152.451 595.852 147.288 599.571 145.757C603.508 146.632 612.171 149.826 615.321 155.6C618.471 161.375 616.633 175.506 615.321 181.85C622.321 175.944 636.189 161.769 635.664 152.319C635.139 142.869 623.196 134.382 617.289 131.32C621.883 130.663 633.039 129.745 640.914 131.32C648.789 132.895 668.695 138.976 677.663 141.819C674.819 137.226 667.426 127.12 660.601 123.445C653.776 119.77 636.32 120.164 628.445 120.82C630.633 119.726 637.37 117.145 646.82 115.57C656.27 113.995 674.819 117.101 682.913 118.851C674.382 114.039 655.22 104.283 646.82 103.758C638.42 103.233 623.633 109.664 617.289 112.945C618.164 107.695 618.996 94.308 615.321 82.7583C611.646 71.2085 592.79 73.571 583.821 76.1959C586.228 77.0709 592.746 80.6583 599.571 88.0082C606.396 95.358 602.415 109.445 599.571 115.57C598.04 114.039 592.352 109.926 581.853 105.727Z" fill="#8EB33E"/>
<path d="M663.226 93.9143C642.226 93.9143 628.008 106.602 618.602 112.945C627.789 110.758 649.576 106.383 663.226 106.383C676.876 106.383 697.788 117.32 706.537 122.789C697.569 113.164 684.225 93.9143 663.226 93.9143Z" fill="#8EB33E"/>
<path d="M674.382 127.382C660.207 123.707 638.726 126.726 629.758 128.695C640.039 130.007 663.357 133.157 674.382 135.257C685.407 137.357 701.725 147.069 708.506 151.663C703.037 145.101 688.557 131.057 674.382 127.382Z" fill="#8EB33E"/>
<path d="M695.381 200.881C691.444 187.756 676.744 162.425 662.57 150.351C649.023 138.811 640.258 133.945 618.602 129.351C628.883 136.132 647.476 150.351 657.976 160.194C668.476 170.038 686.194 187.756 695.381 200.881Z" fill="#8EB33E"/>
<path d="M556.916 168.069C552.716 178.044 553.416 203.287 554.291 214.662C555.822 206.131 559.541 186.575 562.166 176.6C564.791 166.625 572.009 149.694 575.29 142.476C570.915 146.851 561.116 158.094 556.916 168.069Z" fill="#8EB33E"/>
<path d="M570.696 172.006C569.122 181.981 571.353 208.974 572.665 221.224C572.665 208.099 574.694 186.061 577.259 175.288C580.54 161.507 583.821 144.007 585.79 135.257C581.415 143.351 572.271 162.032 570.696 172.006Z" fill="#8EB33E"/>
<path d="M549.697 148.382C536.069 161.328 526.948 184.694 522.792 197.6C529.135 189.506 543.529 169.381 555.603 156.257C567.678 143.132 587.759 132.195 595.634 128.039C588.196 129.132 562.822 135.913 549.697 148.382Z" fill="#8EB33E"/>
<path d="M547.728 130.007C529.879 140.507 522.354 158.444 519.51 166.756C526.073 158.225 541.529 144.851 551.666 137.882C562.166 130.663 582.29 121.039 590.384 118.195C584.478 117.32 565.578 119.507 547.728 130.007Z" fill="#8EB33E"/>
<path d="M562.166 89.3207C553.766 88.2707 539.854 91.5081 533.948 93.2581C538.104 88.4457 549.566 79.0834 562.166 80.1334C574.765 81.1833 587.54 97.633 592.352 105.727C585.79 100.695 570.565 90.3706 562.166 89.3207Z" fill="#8EB33E"/>
<path d="M577.915 77.5084C566.706 68.2776 544.229 63.29 533.291 63.0712C542.479 67.4461 564.266 76.9834 572.665 85.3832C581.065 93.7831 592.352 110.32 596.29 114.258C594.977 108.351 589.071 86.6957 577.915 77.5084Z" fill="#8EB33E"/>
<path d="M603.508 112.945C606.352 103.539 611.646 79.8709 610.071 60.4463C608.159 36.8731 593.781 27.2397 573.978 33.5406C580.103 39.6655 593.665 55.0652 598.915 67.6649C604.165 80.2646 604.165 103.102 603.508 112.945Z" fill="#8EB33E"/>
<path d="M623.852 165.444C624.377 144.444 617.508 133.945 614.008 131.32H619.914C624.727 138.32 635.008 154.944 637.633 165.444C640.258 175.944 625.602 203.506 617.946 215.974C619.696 207.881 623.327 186.444 623.852 165.444Z" fill="#8EB33E"/>
<path d="M640.914 82.7583C633.564 95.358 617.289 108.133 610.071 112.945C611.383 105.289 616.371 88.0082 625.82 80.1333C635.27 72.2585 646.82 59.79 651.414 54.5402C650.976 58.6963 648.264 70.1586 640.914 82.7583Z" fill="#8EB33E"/>
<path d="M679.632 145.101C664.407 135.651 637.414 131.101 625.82 130.007C638.289 134.601 665.982 145.363 677.007 151.663C688.031 157.963 706.975 172.663 715.068 179.225C709.6 171.788 694.856 154.55 679.632 145.101Z" fill="#8EB33E"/>
<path d="M220.111 249.026L212.397 249.582C214.659 233.911 218.162 199.152 218.349 190.997C218.536 182.842 218.535 144.297 218.511 126.045L226.225 125.488C226.362 140.825 226.617 175.28 226.545 190.406C226.473 205.532 222.225 235.788 220.111 249.026Z" fill="#5C451D"/>
<path d="M202.726 108.767C194.79 106.238 182.961 112.454 178.038 115.879L194.43 114.696C199.445 114.335 201.712 119.341 202.219 121.889C199.326 122.097 192.164 123.583 186.656 127.857C181.149 132.132 178.837 142.637 178.37 147.356C179.402 145.989 182.63 141.911 187.282 136.536C191.935 131.16 201.501 129.856 205.702 129.876C204.132 132.736 200.689 140.997 199.484 151.164C198.278 161.331 210.353 165.242 216.541 165.927C215.345 162.782 212.649 154.964 211.432 148.848C210.216 142.733 215.214 138.56 217.864 137.238C220.804 137.672 227.337 139.559 229.957 143.635C232.577 147.711 231.976 158.19 231.348 162.92C236.177 158.21 245.615 147.062 244.729 140.147C243.843 133.232 234.618 127.629 230.117 125.692C233.457 124.967 241.604 123.701 247.473 124.441C253.342 125.181 268.289 128.594 275.028 130.208C272.696 126.983 266.729 119.95 261.52 117.612C256.311 115.274 243.507 116.488 237.757 117.387C239.306 116.468 244.119 114.215 250.978 112.557C257.837 110.899 271.63 112.198 277.669 113.055C271.146 109.971 256.551 103.819 250.352 103.879C244.153 103.938 233.63 109.446 229.143 112.193C229.508 108.29 229.409 98.4102 226.098 90.1196C222.786 81.8289 209.058 84.5636 202.608 86.9673C204.422 87.4827 209.401 89.7729 214.805 94.8111C220.208 99.8492 218.03 110.41 216.265 115.06C215.059 114.016 210.663 111.296 202.726 108.767Z" fill="#8EB33E"/>
<path d="M261.883 95.7775C246.456 96.8901 236.682 106.965 230.107 112.123C236.741 110.03 252.516 105.661 262.544 104.938C272.572 104.215 288.515 111.142 295.233 114.696C288.135 108.1 277.311 94.6648 261.883 95.7775Z" fill="#8EB33E"/>
<path d="M271.853 119.775C261.244 117.826 245.623 121.182 239.138 123.103C246.761 123.523 264.059 124.601 272.27 125.56C280.481 126.519 292.984 132.79 298.21 135.805C293.844 131.274 282.461 121.724 271.853 119.775Z" fill="#8EB33E"/>
<path d="M291.175 172.66C287.587 163.226 275.445 145.395 264.391 137.275C253.827 129.514 247.13 126.404 230.977 124.176C238.889 128.614 253.303 138.075 261.538 144.75C269.774 151.426 283.73 163.504 291.175 172.66Z" fill="#8EB33E"/>
<path d="M187.709 155.89C185.152 163.441 187.003 181.949 188.249 190.26C188.922 183.911 190.618 169.347 192.018 161.88C193.418 154.412 197.824 141.591 199.852 136.114C196.87 139.56 190.266 148.339 187.709 155.89Z" fill="#8EB33E"/>
<path d="M198.042 158.053C197.413 165.464 200.482 185.178 202.096 194.108C201.4 184.465 201.723 168.167 203.037 160.116C204.717 149.817 206.201 136.787 207.183 130.254C204.398 136.432 198.67 150.641 198.042 158.053Z" fill="#8EB33E"/>
<path d="M181.362 141.809C172.036 152.043 166.572 169.692 164.203 179.394C168.434 173.111 177.943 157.564 186.118 147.281C194.294 136.999 208.467 127.9 214.033 124.429C208.627 125.627 190.344 131.953 181.362 141.809Z" fill="#8EB33E"/>
<path d="M178.942 128.414C166.385 137.073 161.807 150.65 160.158 156.908C164.527 150.292 175.175 139.648 182.252 133.991C189.584 128.131 203.859 119.994 209.654 117.475C205.269 117.146 191.5 119.754 178.942 128.414Z" fill="#8EB33E"/>
<path d="M187.393 97.7572C181.166 97.4309 171.117 100.546 166.87 102.145C169.669 98.3893 177.594 90.9037 186.906 91.0075C196.219 91.1113 206.476 102.52 210.44 108.211C205.352 104.862 193.62 98.0835 187.393 97.7572Z" fill="#8EB33E"/>
<path d="M198.338 88.2445C189.614 82.0567 172.836 79.5834 164.789 80.0022C171.771 82.7295 188.282 88.582 194.899 94.3082C201.515 100.034 210.684 111.586 213.785 114.27C212.508 110 207.021 94.4032 198.338 88.2445Z" fill="#8EB33E"/>
<path d="M219.019 112.923C220.609 105.862 223.245 88.193 221.058 74.0056C218.405 56.7881 207.331 50.4725 193.116 56.1509C197.94 60.3262 208.72 70.9214 213.245 79.9C217.769 88.8786 218.979 105.657 219.019 112.923Z" fill="#8EB33E"/>
<path d="M236.746 150.415C236.019 134.959 230.417 127.609 227.706 125.866L232.045 125.553C235.952 130.441 244.386 142.11 246.871 149.685C249.356 157.26 240.049 178.286 235.084 187.852C235.941 181.813 237.473 165.871 236.746 150.415Z" fill="#8EB33E"/>
<path d="M244.9 88.7635C240.168 98.4097 228.888 108.657 223.84 112.575C224.398 106.881 227.147 93.9209 233.672 87.6348C240.198 81.3486 248.022 71.5763 251.119 67.4759C251.018 70.5526 249.632 79.1174 244.9 88.7635Z" fill="#8EB33E"/>
<path d="M276.649 132.514C264.963 126.378 244.89 124.465 236.315 124.276C245.719 126.99 266.634 133.43 275.068 137.474C283.501 141.518 298.198 151.314 304.491 155.707C300.08 150.532 288.335 138.65 276.649 132.514Z" fill="#8EB33E"/>
<path d="M35.7001 244.509C13.7987 239.66 -279.741 194.44 -301.369 194.635L-179.571 177.354C-155.191 185.76 90.641 242.255 134.278 243.121C183.472 244.098 335.354 216.581 423.425 234.587C511.496 252.594 506.18 280.535 677.501 310.601C848.821 340.667 1042.6 374.84 1160.18 404.574C1277.34 434.202 1794.27 576.966 1981.19 750.76C1982.52 751.995 1983.33 753.609 1983.58 755.405L1984.5 761.867C1985.56 769.358 1976.47 774.193 1970.69 769.304C1772.54 601.569 1278.85 465.293 1164.7 436.425C1047.12 406.691 853.341 372.517 682.02 342.451C510.699 312.385 516.015 284.444 427.944 266.438C339.873 248.432 187.991 275.949 138.797 274.972C89.6024 273.995 63.077 250.571 35.7001 244.509Z" fill="#DFD3CF"/>
<path d="M35.7353 244.551C13.8321 239.706 -279.714 194.496 -301.344 194.693L-663.993 246.147C-655.829 244.989 -607.356 256.492 -390.172 317.245C-386.932 318.151 -384.311 321.071 -384.98 324.368C-389.934 348.771 -444.244 350.1 -532.29 423.234C-626.592 501.565 -678.927 665.403 -697.951 844.397C-713.054 986.495 -511.26 1168.57 -406.126 1243.65C-404.53 1244.79 -402.713 1245.26 -400.764 1245.05C459.063 1149.28 2135.89 923.567 1987.89 784.095C1802.68 609.556 1282.42 465.987 1164.83 436.278C1047.24 406.568 853.447 372.428 682.112 342.391C510.776 312.354 516.095 284.426 428.017 266.436C339.938 248.446 188.039 275.963 138.84 274.99C89.6406 274.018 63.1144 250.608 35.7353 244.551Z" fill="#D3E3F2"/>
</g>
<defs>
<clipPath id="clip0_18_408">
<rect width="840" height="328" fill="white"/>
</clipPath>
</defs>
</svg>
