<svg width="1451" height="964" viewBox="0 0 1451 964" fill="none" xmlns="http://www.w3.org/2000/svg">
<rect width="1451" height="964" fill="#FFFCFA"/>
<path d="M465.732 419.95C451.385 415.522 448.919 387.327 434.908 391.17C420.896 395.013 418.879 399.361 417.534 405.56C415.852 413.308 429.864 436.554 439.952 448.176C450.04 459.799 466.293 457.585 485.348 453.711C504.403 449.837 499.92 427.145 490.392 418.843C480.864 410.541 483.667 425.484 465.732 419.95Z" fill="#F3E5D5"/>
<path d="M853.562 443.749C842.802 443.749 822.738 490.239 818.815 513.484C814.891 536.73 821.841 567.945 833.947 571.044C849.079 574.918 865.892 537.837 869.815 511.271C873.739 484.705 867.013 443.749 853.562 443.749Z" fill="#F4B37A"/>
<path d="M816.573 205.761C795.276 206.868 791.913 225.686 787.99 241.736C784.067 257.786 791.913 288.78 791.913 304.277C791.913 323.648 801.441 368.478 821.617 358.516C841.793 348.554 845.716 325.308 849.639 309.258C853.562 293.208 862.53 279.925 862.53 261.66C862.53 243.396 844.035 244.503 842.914 231.774C841.793 219.044 837.87 204.654 816.573 205.761Z" fill="#F4B37A"/>
<path d="M1017.77 221.811C1021.7 214.063 1039.07 172 1008.25 169.233C977.421 166.466 971.032 188.825 967.894 211.849C963.971 240.629 977.421 269.962 994.795 270.516C1012.17 271.069 1021.14 250.591 1022.82 237.862C1024.5 225.132 1013.85 229.56 1017.77 221.811Z" fill="#F4B37A"/>
<path d="M1132.11 327.522C1122.58 336.931 1111.37 339.145 1093.99 345.233C1080.47 349.973 1072.21 365.232 1069.54 372.848C1067.79 361.06 1064.4 335.492 1064.85 327.522C1065.41 317.56 1074.38 306.491 1079.98 296.529C1085.59 286.566 1080.54 281.585 1086.71 263.321C1092.87 245.057 1125.38 214.063 1156.76 228.453C1188.15 242.843 1152.84 286.566 1143.87 296.529C1134.91 306.491 1141.63 318.113 1132.11 327.522Z" fill="#F4B37A"/>
<path d="M874.859 835.044C870.824 804.936 888.871 780.067 898.398 771.396C903.069 796.671 918.911 855.079 944.915 886.516C970.92 917.952 975.927 951.27 975.18 964H918.574C917.453 957.358 914.651 939.426 912.409 920.83C909.607 897.585 879.903 872.679 874.859 835.044Z" fill="#F3E5D5"/>
<path d="M980.784 899.799C1002.75 921.494 1005.26 951.639 1003.76 964H1451V585.434C1437.18 571.782 1406.95 538.169 1396.64 512.931C1383.75 481.384 1399.44 469.761 1419.61 437.107C1439.79 404.453 1445.4 345.233 1436.43 332.503C1427.46 319.774 1405.6 314.793 1383.19 296.529C1360.77 278.264 1321.54 270.516 1220.66 327.522C1119.78 384.529 1165.73 457.032 1074.38 500.755C983.417 544.291 975.248 551.611 945.302 578.446L944.915 578.793C914.651 605.912 918.574 682.843 912.409 734.315C906.244 785.786 953.322 872.679 980.784 899.799Z" fill="#F3E5D5"/>
<path d="M669.735 349.107C685.428 349.107 700.672 370.913 721.297 371.799C747.077 372.906 780.704 365.157 791.913 402.793C803.122 440.428 776.781 479.723 782.946 513.484L783.3 515.425C789.657 550.265 804.038 629.09 822.738 654.616C841.793 680.629 883.266 706.088 884.387 730.44C885.508 754.792 854.123 795.748 859.167 826.742C864.211 857.736 893.915 904.226 898.398 924.151C901.985 940.091 904.376 957.358 905.124 964H0V548.352C12.8903 541.342 45.7326 528.206 73.9791 531.749C109.287 536.176 142.354 563.296 147.398 599.824C152.442 636.352 156.925 681.182 159.728 683.95C162.53 686.717 178.222 669.006 191.113 664.025C204.003 659.044 235.949 650.189 242.674 606.465C249.399 562.742 258.927 514.038 304.884 511.824C350.84 509.61 367.093 541.157 383.907 546.138C400.72 551.12 413.05 550.013 423.138 556.654C433.226 563.296 452.282 590.969 459.567 606.465C466.853 621.962 476.381 645.208 503.282 653.509C530.184 661.811 558.206 703.874 564.932 704.428C571.657 704.981 564.371 677.308 571.657 661.258C578.943 645.208 605.844 616.981 604.163 590.969C602.482 564.956 578.943 464.78 584.547 433.786C590.152 402.793 601.921 383.975 618.735 371.799C632.185 362.058 654.043 349.107 669.735 349.107Z" fill="#F3E5D5"/>
</svg>
